
<svg class="css-1j8o68f" viewBox="0 0 310.00000000000006 294.94325226654075" height="404.578125" width="425.23169384685036">
    <defs id="SvgjsDefs1193">
    </defs>
    <g fill="#ffffff" transform="matrix(1.569655179234111,0,0,1.569655179234111,-0.0036999206868160825,-0.0018973770820091052)" id="SvgjsG1194">
        <path d="M186.037 47.606c-2.199-3.918-4.573-7.708-7.278-11.212-2.673-3.521-5.532-6.862-8.641-9.896-1.501-1.568-3.157-2.966-4.737-4.419l-2.486-2.04c-.416-.335-.822-.681-1.244-1.006l-1.286-.948c-3.376-2.588-6.978-4.783-10.585-6.828-1.85-.953-3.631-1.955-5.557-2.789-.942-.424-1.896-.887-2.819-1.272l-2.741-1.088-1.436-.563-1.428-.485-2.84-.963-2.865-.816c-.952-.27-1.896-.548-2.859-.748l-2.861-.651c-.947-.225-1.914-.351-2.863-.53-.955-.153-1.896-.36-2.85-.465l-2.844-.348c-.941-.134-1.888-.19-2.829-.256l-2.809-.197-2.793-.058c-.926-.021-1.848-.047-2.766-.002a92.396 92.396 0 0 0-20.951 2.813C70.563 6.3 59.408 12.063 50.684 18.606a94.794 94.794 0 0 0-11.452 10.073c-.852.814-1.59 1.705-2.365 2.525l-1.131 1.235c-.364.415-.705.842-1.052 1.256l-2.014 2.438-1.806 2.405c-4.652 6.288-7.49 11.763-9.253 15.556-.942 1.875-1.481 3.375-1.92 4.36l-.631 1.504-.003.007-.574 1.533c-.356 1.019-.997 2.493-1.593 4.497-1.313 3.961-3.002 9.899-3.925 17.664l-.334 2.989-.205 3.155c-.03.539-.075 1.083-.095 1.635l-.023 1.675c.002 1.128-.071 2.283-.009 3.46.065 4.71.49 9.809 1.436 15.183 1.26 7.265 3.635 15.029 7.239 22.851.779.461 1.548.94 2.31 1.432-4.283-8.301-7.051-16.679-8.546-24.475-2.073-10.61-1.93-20.139-1.051-27.822.868-7.709 2.508-13.618 3.789-17.561.58-1.996 1.208-3.463 1.556-4.478l.56-1.525.639-1.496c.443-.978.997-2.489 1.94-4.333 1.766-3.739 4.625-9.172 9.278-15.377 4.628-6.196 11.056-13.232 19.838-19.535A91.401 91.401 0 0 1 84.063 4.544a90.29 90.29 0 0 1 20.54-2.216c.895-.022 1.792.028 2.692.072l2.713.125 2.725.263c.912.087 1.829.165 2.74.32l2.75.409c.923.124 1.831.351 2.751.522.916.198 1.847.342 2.759.585l2.753.702c.926.215 1.834.51 2.747.795l2.748.859 2.72 1.002 1.366.503c.433.17.895.378 1.341.566l2.71 1.16c.897.402 1.764.855 2.652 1.283 1.786.825 3.494 1.846 5.243 2.803 3.416 2.057 6.815 4.246 9.982 6.808l1.207.938c.396.322.776.663 1.166.994l2.327 2.01c1.474 1.431 3.021 2.8 4.415 4.336 2.893 2.969 5.534 6.223 7.991 9.637 2.489 3.396 4.649 7.057 6.641 10.824a90.788 90.788 0 0 1 8.513 24.324 91.449 91.449 0 0 1 1.326 26.142l-.353 3.283c-.149 1.09-.337 2.177-.503 3.266-.091.543-.161 1.091-.268 1.631l-.337 1.619c-.239 1.076-.419 2.167-.706 3.232-1.022 4.289-2.432 8.505-3.994 12.605-1.699 4.128-3.542 8.104-5.743 11.943-.521.972-1.138 1.89-1.702 2.837l-.864 1.41c-.292.467-.617.913-.923 1.371-.625.907-1.233 1.826-1.872 2.723l-1.994 2.632a91.506 91.506 0 0 1-18.886 18.123 90.78 90.78 0 0 1-22.873 11.874c-4.033 1.377-8.116 2.561-12.256 3.328-4.129.801-8.283 1.359-12.424 1.538-2.068.163-4.133.099-6.187.13l-3.072-.133c-.51-.026-1.021-.038-1.53-.075l-1.522-.145c-4.062-.306-8.038-1.042-11.935-1.887-1.93-.502-3.871-.929-5.744-1.555-.94-.298-1.888-.564-2.814-.886l-2.755-1.009c-.452-.169-.927-.332-1.359-.504l-1.346-.573-2.679-1.141-2.584-1.256c-.858-.417-1.718-.824-2.541-1.303l-2.485-1.376c-.831-.448-1.608-.982-2.41-1.466-.788-.507-1.605-.963-2.362-1.505l-2.282-1.588c-.769-.512-1.49-1.083-2.214-1.645l-2.165-1.677-2.062-1.769c-.686-.585-1.373-1.164-2.01-1.793a88.332 88.332 0 0 1-2.869-2.797c-1.327-1.58-2.581-3.179-3.803-4.573-2.252-2.567-4.593-5.215-6.564-8.082-2.054-1.562-4.246-2.861-6.643-3.752-9.023-3.367-19.606-.866-21.632 9.474-2.039 10.344 6.262 19.563 15.144 15.991 8.889-3.579 2.976-12.596 2.976-12.596-8.685 10.673-19.863-.046-13.219-8.189 6.649-8.149 18.864.11 24.08 5.962 5.217 5.859 8.36 16.912 22.738 25.257 6.962 4.038 13.209 4.608 17.806 4.125l2.185.863c.952.358 1.927.661 2.895.995 1.929.698 3.931 1.195 5.926 1.768 4.028.983 8.154 1.854 12.384 2.283l1.585.19c.53.053 1.062.08 1.596.12l3.207.219c2.146.025 4.309.142 6.477.029 4.342-.079 8.712-.551 13.07-1.283 4.37-.697 8.694-1.829 12.98-3.175 8.554-2.764 16.778-6.906 24.35-12.13l2.816-2.002 2.726-2.137c.924-.697 1.782-1.473 2.661-2.227.871-.764 1.77-1.499 2.594-2.317l2.502-2.426 2.385-2.547c.811-.836 1.551-1.737 2.305-2.625.744-.897 1.533-1.76 2.224-2.701l2.131-2.78c.684-.947 1.336-1.917 2.004-2.877.329-.483.674-.956.988-1.45l.927-1.49c.605-1.001 1.262-1.973 1.823-3l1.704-3.072c.572-1.017 1.074-2.138 1.612-3.204l.792-1.62c.266-.542.453-1.029.683-1.546l1.322-3.06.357-.941.301-.826.599-1.652c.419-1.094.762-2.215 1.101-3.336.332-1.124.718-2.23 1-3.368l.865-3.405c.296-1.133.484-2.291.729-3.435l.347-1.72c.11-.574.183-1.155.275-1.733.171-1.157.361-2.31.512-3.468l.355-3.485c.143-1.159.159-2.328.233-3.491.059-1.164.139-2.327.122-3.492l.009-3.49-.154-3.482c-.023-1.161-.18-2.313-.29-3.466-.123-1.152-.215-2.306-.411-3.447l-.52-3.425-.679-3.389c-1.93-8.994-5.097-17.64-9.407-25.53z" xmlns="http://www.w3.org/2000/svg">
        </path>
    </g>
    <g fill="#01aac1" transform="matrix(1.222360958989987,0,0,1.222360958989987,91.90617497204829,48.30722071338791)" id="SvgjsG1195">
        <path d="M32.932,13.373c1.028,0.057,1.76,0.481,2.066,1.2c0.303,0.709,0.121,1.569-0.474,2.242  c-0.944,1.069-1.205,2.454-0.681,3.615c0.529,1.174,1.769,1.875,3.315,1.875H44c0.274,0,0.274,0.161,0.274,0.247v6.301  c-0.942-0.646-2.016-0.995-3.096-0.995c-0.708,0-1.4,0.146-2.054,0.435c-1.976,0.869-3.155,2.827-3.155,5.238v0.055  c0,2.434,1.165,4.399,3.114,5.258c0.657,0.289,1.342,0.436,2.037,0.436c1.114,0,2.193-0.373,3.155-1.084v6.391  c0,0.182-0.103,0.37-0.274,0.37h-6.841c-1.687,0-3.112,0.837-3.721,2.185c-0.519,1.149-0.316,2.459,0.5,3.384  c0.36,0.438,0.591,1.309,0.362,1.822c-0.155,0.349-0.596,0.544-1.308,0.583c-0.315-0.018-0.805-0.087-0.944-0.34  c-0.233-0.421,0.007-1.493,0.377-2.197c0.695-0.877,0.832-2.006,0.36-3.051c-0.644-1.427-2.284-2.386-4.08-2.386h-6.739  c-0.177,0-0.344-0.18-0.344-0.37v-6.478c1.001,0.758,2.186,1.17,3.387,1.17c0.72,0,1.417-0.146,2.072-0.435  c2.026-0.892,3.285-2.9,3.285-5.239v-0.054c0-2.355-1.251-4.37-3.267-5.258c-0.658-0.289-1.356-0.436-2.078-0.436  c-1.21,0-2.401,0.419-3.4,1.188v-6.495c0-0.24,0.309-0.247,0.344-0.247h6.739c1.545,0,2.785-0.701,3.314-1.876  c0.525-1.163,0.265-2.549-0.679-3.619c-0.595-0.674-0.777-1.533-0.476-2.241C31.172,13.853,31.904,13.429,32.932,13.373   M32.933,12.02c-3.497,0.145-4.526,3.506-2.604,5.684c1.167,1.322,0.658,3.25-1.623,3.25h-6.739c-0.932,0-1.695,0.666-1.695,1.598  v6.93c0,0.406,0.181,1.091,0.572,1.272c0.101,0.047,0.21,0.069,0.323,0.069c0.32,0,0.673-0.176,0.977-0.453  c0.837-0.763,1.863-1.162,2.879-1.162c0.522,0,1.042,0.105,1.534,0.321c1.452,0.64,2.459,2.143,2.459,4.021v0.032v0.022  c0,1.872-1.021,3.361-2.479,4.003c-0.49,0.216-1.007,0.32-1.527,0.32c-1.03,0-2.069-0.411-2.914-1.182  c-0.3-0.274-0.639-0.443-0.945-0.443c-0.109,0-0.214,0.021-0.311,0.067c-0.384,0.18-0.568,0.833-0.568,1.239v6.977  c0,0.931,0.763,1.721,1.695,1.721h6.739c2.281,0,3.764,2,2.598,3.322c-0.6,1.051-1.809,4.506,1.688,4.653  c3.495-0.146,3.04-3.34,1.99-4.616c-1.167-1.323-0.104-3.359,2.177-3.359H44c0.932,0,1.625-0.79,1.625-1.721v-6.931  c0-0.406-0.093-1.091-0.482-1.272c-0.101-0.047-0.207-0.069-0.316-0.069c-0.307,0-0.636,0.175-0.94,0.452  c-0.836,0.763-1.797,1.163-2.769,1.163c-0.5,0-1.002-0.105-1.492-0.321c-1.453-0.64-2.308-2.143-2.308-4.021v-0.033v-0.022  c0-1.872,0.89-3.36,2.348-4.002c0.489-0.216,1-0.32,1.51-0.32c1.011,0,2.021,0.411,2.866,1.181c0.301,0.273,0.574,0.442,0.846,0.442  c0.097,0,0.193-0.021,0.291-0.066c0.384-0.178,0.445-0.832,0.445-1.239v-6.976c0-0.933-0.693-1.598-1.625-1.598h-6.841  c-2.281,0-2.79-1.922-1.622-3.245C37.459,15.533,36.428,12.166,32.933,12.02L32.933,12.02z" fill="#01aac1" xmlns="http://www.w3.org/2000/svg">
        </path>
        <path d="M84.158,49.688c0.464,0,0.953,0.15,1.455,0.447c0.856,0.638,1.246,1.43,1.097,2.235  c-0.147,0.792-0.8,1.434-1.703,1.675c-1.344,0.36-2.302,1.343-2.502,2.564c-0.204,1.252,0.41,2.456,1.685,3.303l5.695,3.787  c0.304,0.204,0.163,0.415,0.117,0.484l-3.584,5.392c-0.675-1.816-2.148-3.104-3.974-3.424c-0.282-0.049-0.569-0.074-0.854-0.074  c-1.774,0-3.429,0.947-4.568,2.631l-0.022,0.029l-0.024,0.037c-1.325,1.996-1.443,4.24-0.316,6.005  c0.936,1.46,2.505,2.297,4.304,2.297c0.158,0,0.318-0.006,0.479-0.019l-3.641,5.478c-0.113,0.171-0.271,0.232-0.383,0.232  c-0.06,0-0.115-0.018-0.172-0.056l-5.697-3.783c-0.72-0.479-1.449-0.724-2.169-0.724c-0.845,0-1.609,0.344-2.155,0.969  c-0.612,0.701-0.883,1.697-0.742,2.735c0.099,0.715-0.08,1.394-0.488,1.862c-0.245,0.28-0.683,0.615-1.377,0.615  c-0.469,0-0.964-0.153-1.474-0.454c-0.849-0.633-1.25-1.441-1.104-2.227c0.145-0.777,0.792-1.409,1.69-1.649  c1.333-0.355,2.282-1.319,2.479-2.517c0.204-1.24-0.416-2.441-1.7-3.294l-5.613-3.734c-0.117-0.077-0.157-0.199-0.171-0.265  c-0.025-0.125-0.001-0.254,0.065-0.354l3.689-5.55c0.624,1.99,2.177,3.411,4.123,3.747c0.3,0.054,0.606,0.08,0.911,0.08  c1.797,0,3.502-0.933,4.599-2.527l0.024-0.029l0.047-0.069c1.28-1.93,1.354-4.263,0.188-6.091c-0.956-1.489-2.633-2.377-4.487-2.377  c-0.196,0-0.395,0.01-0.593,0.029l3.7-5.563c0.039-0.06,0.108-0.139,0.254-0.139c0.094,0,0.197,0.035,0.292,0.098l5.61,3.731  c0.71,0.473,1.435,0.712,2.152,0.712c0.858,0,1.638-0.351,2.194-0.989c0.621-0.712,0.896-1.715,0.754-2.751  c-0.099-0.718,0.085-1.404,0.502-1.882C83.106,49.913,83.606,49.688,84.158,49.688L84.158,49.688 M84.158,48.427  c-2.004,0-3.455,1.792-3.159,3.947c0.173,1.265-0.561,2.309-1.699,2.309c-0.436,0-0.929-0.151-1.454-0.501l-5.61-3.731  c-0.309-0.206-0.654-0.309-0.99-0.309c-0.508,0-0.994,0.234-1.305,0.702l-3.837,5.77c-0.227,0.34-0.454,1.012-0.228,1.375  c0.176,0.293,0.543,0.428,0.964,0.428c0.106,0,0.217-0.009,0.328-0.025c0.241-0.037,0.48-0.055,0.716-0.055  c1.419,0,2.694,0.657,3.426,1.797c0.854,1.34,0.86,3.148-0.178,4.713l-0.021,0.023l-0.013,0.02c-0.884,1.331-2.233,2.02-3.586,2.02  c-0.231,0-0.462-0.021-0.691-0.061c-1.573-0.271-2.807-1.504-3.221-3.174c-0.133-0.533-0.435-0.947-0.84-1.01  c-0.027-0.004-0.055-0.006-0.082-0.006c-0.401,0-0.865,0.406-1.076,0.725l-3.863,5.811c-0.516,0.777-0.317,1.855,0.46,2.369  l5.61,3.732c1.899,1.262,1.299,3.088-0.405,3.543c-2.806,0.748-3.791,4.088-0.96,6.145c0.759,0.46,1.498,0.664,2.173,0.664  c1.986,0,3.409-1.763,3.114-3.91c-0.171-1.257,0.533-2.271,1.648-2.271c0.437,0,0.935,0.155,1.469,0.512l5.7,3.785  c0.271,0.181,0.571,0.266,0.869,0.266c0.555,0,1.1-0.292,1.435-0.797l3.837-5.773c0.226-0.338,0.527-0.959,0.302-1.324  c-0.171-0.284-0.507-0.406-0.908-0.406c-0.111,0-0.229,0.01-0.348,0.027c-0.264,0.041-0.522,0.061-0.773,0.061  c-1.364,0-2.522-0.594-3.242-1.717c-0.854-1.336-0.734-3.061,0.306-4.627l0.02-0.025l0.013-0.02  c0.896-1.347,2.185-2.089,3.533-2.089c0.211,0,0.424,0.019,0.638,0.056c1.572,0.275,2.75,1.471,3.167,3.139  c0.135,0.533,0.333,0.883,0.739,0.943c0.024,0.004,0.05,0.006,0.074,0.006c0.39,0,0.771-0.474,0.981-0.791l3.861-5.809  c0.517-0.777,0.308-1.713-0.467-2.23l-5.697-3.789c-1.899-1.262-1.259-3.143,0.445-3.6c2.806-0.748,3.812-4.121,0.979-6.178  C85.562,48.628,84.829,48.427,84.158,48.427L84.158,48.427z" fill="#01aac1" xmlns="http://www.w3.org/2000/svg">
        </path>
        <path d="M70.479,22.251c0.153,0,0.369,0.084,0.369,0.273v6.84c0,2.459,1.596,3.58,3.079,3.58  c0.831,0,1.668-0.335,2.357-0.943c0.452-0.399,0.989-0.619,1.513-0.619c1.067,0,1.799,0.866,1.874,2.21  c-0.075,1.343-0.812,2.208-1.887,2.208c-0.526,0-1.064-0.219-1.517-0.619c-0.69-0.608-1.526-0.943-2.354-0.943  c-1.477,0-3.065,1.12-3.065,3.579v6.74c0,0.18-0.176,0.344-0.369,0.344h-6.477c1.235-1.628,1.522-3.674,0.734-5.458  c-0.892-2.026-2.898-3.285-5.237-3.285h-0.055c-2.354,0-4.368,1.25-5.258,3.265c-0.793,1.801-0.5,3.859,0.752,5.479h-6.495  c-0.239,0-0.246-0.309-0.246-0.344v-6.74c0-2.55-1.744-4.074-3.43-4.074c-0.7,0-1.365,0.243-1.935,0.704  c-0.296,0.157-0.9,0.358-1.446,0.358c-0.53,0-0.94-0.086-0.999-1.163c0.068-1.26,0.621-1.266,0.992-1.266c0.001,0,0.003,0,0.005,0  c0.539,0,1.107,0.242,1.296,0.403c0.575,0.508,1.265,0.776,1.995,0.776c1.942,0,3.521-1.881,3.521-4.193v-6.84  c0-0.252,0.127-0.273,0.246-0.273h6.302c-1.072,1.568-1.297,3.476-0.562,5.151c0.871,1.974,2.831,3.153,5.241,3.153h0.055  c2.433,0,4.397-1.164,5.257-3.114c0.757-1.722,0.509-3.62-0.648-5.19H70.479 M70.479,20.9h-6.931c-0.406,0-1.091,0.092-1.271,0.482  c-0.18,0.387,0.007,0.843,0.383,1.256c1.156,1.265,1.476,2.815,0.841,4.26c-0.64,1.451-2.144,2.306-4.021,2.306h-0.034h-0.021  c-1.873,0-3.361-0.888-4.006-2.348c-0.64-1.46-0.295-3.104,0.864-4.376c0.371-0.409,0.549-0.765,0.377-1.136  c-0.18-0.383-0.833-0.444-1.241-0.444h-6.976c-0.932,0-1.597,0.691-1.597,1.625v6.84c0,1.694-1.075,2.842-2.17,2.842  c-0.379,0-0.761-0.138-1.101-0.438c-0.452-0.387-1.327-0.741-2.19-0.742c-1.145,0-2.267,0.623-2.35,2.617  c0.082,1.962,1.208,2.514,2.352,2.514c0.894,0,1.798-0.336,2.225-0.6c0.358-0.316,0.76-0.463,1.156-0.463  c1.063,0,2.079,1.06,2.079,2.723v6.74c0,0.932,0.665,1.695,1.597,1.695h6.931c0.408,0,1.091-0.183,1.273-0.573  c0.18-0.386-0.009-0.887-0.384-1.299c-1.155-1.267-1.478-2.968-0.841-4.413c0.641-1.451,2.143-2.458,4.021-2.458h0.031h0.023  c1.871,0,3.359,1.02,4.001,2.478c0.645,1.46,0.298,3.169-0.859,4.44c-0.373,0.408-0.551,0.885-0.377,1.258  c0.18,0.382,0.832,0.567,1.238,0.567h6.977c0.932,0,1.72-0.763,1.72-1.695v-6.74c0-1.495,0.795-2.228,1.715-2.228  c0.485,0,1.004,0.203,1.461,0.605c0.729,0.643,1.586,0.956,2.41,0.956c1.638,0,3.142-1.233,3.239-3.559  c-0.098-2.326-1.594-3.561-3.226-3.561c-0.822,0-1.678,0.312-2.407,0.956c-0.456,0.402-0.977,0.605-1.464,0.605  c-0.926,0-1.729-0.733-1.729-2.229v-6.84C72.198,21.591,71.41,20.9,70.479,20.9L70.479,20.9z" fill="#01aac1" xmlns="http://www.w3.org/2000/svg">
        </path>
        <path d="M44.109,48.846c0.24,0,0.247,0.308,0.247,0.343v6.741c0,2.458,1.618,3.578,3.121,3.578  c0.842,0,1.685-0.336,2.375-0.944c0.452-0.398,0.994-0.618,1.526-0.618c0.83,0,1.822,0.58,1.912,2.207  c-0.09,1.631-1.084,2.212-1.916,2.212c-0.534,0-1.076-0.219-1.527-0.617c-0.689-0.608-1.532-0.944-2.373-0.944  c-1.502,0-3.118,1.12-3.118,3.58v6.84c0,0.276-0.16,0.276-0.247,0.276h-6.302c1.075-1.569,1.299-3.479,0.563-5.153  c-0.871-1.975-2.83-3.153-5.242-3.153h-0.054c-2.433,0-4.398,1.164-5.258,3.116c-0.755,1.722-0.505,3.62,0.652,5.19h-6.394  c-0.181,0-0.369-0.104-0.369-0.276v-6.84c0-2.46-1.596-3.58-3.079-3.58c-0.831,0-1.668,0.335-2.358,0.943  c-0.451,0.398-0.988,0.617-1.512,0.617c-1.068,0-1.8-0.865-1.875-2.211c0.075-1.343,0.811-2.207,1.886-2.207  c0.527,0,1.066,0.22,1.517,0.618c0.689,0.608,1.525,0.944,2.354,0.944c1.477,0,3.067-1.12,3.067-3.578v-6.741  c0-0.18,0.176-0.343,0.369-0.343h6.478c-1.235,1.628-1.522,3.674-0.736,5.458c0.891,2.025,2.899,3.283,5.24,3.283h0.055  c2.355,0,4.37-1.25,5.255-3.263c0.793-1.799,0.502-3.855-0.75-5.479H44.109 M44.109,47.495h-6.93c-0.407,0-1.091,0.182-1.272,0.572  c-0.18,0.386,0.007,0.888,0.383,1.299c1.154,1.268,1.476,2.97,0.839,4.414c-0.639,1.451-2.142,2.457-4.019,2.457h-0.033h-0.021  c-1.872,0-3.361-1.018-4.003-2.477c-0.644-1.461-0.297-3.169,0.862-4.441c0.371-0.407,0.549-0.885,0.377-1.258  c-0.18-0.381-0.834-0.566-1.24-0.566h-6.977c-0.932,0-1.72,0.762-1.72,1.694v6.741c0,1.493-0.795,2.228-1.716,2.228  c-0.484,0-1.003-0.204-1.459-0.606c-0.729-0.644-1.587-0.956-2.412-0.956c-1.637,0-3.141,1.233-3.238,3.558  c0.097,2.327,1.595,3.562,3.227,3.562c0.821,0,1.676-0.312,2.405-0.955c0.457-0.402,0.978-0.605,1.465-0.605  c0.926,0,1.728,0.733,1.728,2.229v6.84c0,0.934,0.788,1.627,1.72,1.627h6.931c0.406,0,1.092-0.096,1.273-0.482  c0.179-0.391-0.009-0.844-0.385-1.26c-1.154-1.264-1.474-2.812-0.841-4.256c0.64-1.453,2.145-2.309,4.021-2.309h0.033h0.021  c1.874,0,3.361,0.887,4.005,2.348c0.642,1.461,0.295,3.105-0.862,4.375c-0.373,0.408-0.55,0.764-0.376,1.137  c0.177,0.383,0.832,0.447,1.238,0.447h6.976c0.933,0,1.598-0.693,1.598-1.627v-6.84c0-1.495,0.826-2.229,1.767-2.229  c0.495,0,1.022,0.203,1.479,0.605c0.729,0.643,1.591,0.955,2.421,0.955c1.648,0,3.171-1.233,3.269-3.562  c-0.098-2.324-1.616-3.558-3.265-3.558c-0.829,0-1.69,0.312-2.42,0.956c-0.456,0.402-0.984,0.606-1.48,0.606  c-0.942,0-1.77-0.734-1.77-2.228v-6.741C45.707,48.256,45.042,47.495,44.109,47.495L44.109,47.495z" fill="#01aac1" xmlns="http://www.w3.org/2000/svg">
        </path>
        <g xmlns="http://www.w3.org/2000/svg">
            <defs>
                <path d="M78.058,69.426c1.036-1.559,2.6-2.307,4.171-2.033c1.572,0.275,2.75,1.471,3.167,3.139    c0.135,0.533,0.333,0.883,0.739,0.943c0.415,0.066,0.831-0.447,1.056-0.785l3.861-5.809c0.517-0.777,0.308-1.713-0.467-2.23    l-5.697-3.789c-1.899-1.262-1.259-3.143,0.445-3.6c2.806-0.748,3.812-4.121,0.979-6.178c-2.99-1.816-5.708,0.414-5.313,3.291    c0.239,1.747-1.251,3.073-3.153,1.808l-5.61-3.731c-0.774-0.517-1.779-0.384-2.295,0.393l-3.837,5.77    c-0.227,0.34-0.454,1.012-0.228,1.375c0.221,0.367,0.741,0.486,1.292,0.402c1.697-0.26,3.289,0.414,4.142,1.742    c0.854,1.34,0.86,3.148-0.178,4.713l-0.021,0.023l-0.013,0.02c-1.035,1.559-2.709,2.236-4.277,1.959    c-1.573-0.271-2.807-1.504-3.221-3.174c-0.133-0.533-0.435-0.947-0.84-1.01c-0.418-0.062-0.933,0.379-1.158,0.719l-3.863,5.811    c-0.516,0.777-0.317,1.855,0.46,2.369l5.61,3.732c1.899,1.262,1.299,3.088-0.405,3.543c-2.806,0.748-3.791,4.088-0.96,6.145    c2.993,1.816,5.683-0.369,5.287-3.246c-0.237-1.748,1.218-3.027,3.117-1.76l5.7,3.785c0.774,0.518,1.789,0.246,2.304-0.531    l3.837-5.773c0.226-0.338,0.527-0.959,0.302-1.324c-0.219-0.363-0.705-0.461-1.256-0.379c-1.696,0.262-3.163-0.326-4.016-1.656    c-0.854-1.336-0.734-3.061,0.306-4.627l0.02-0.025L78.058,69.426z" id="a">
                </path>
            </defs>
            <clipPath>
                <use overflow="visible" xlink:href="#a" xmlns:xlink="http://www.w3.org/1999/xlink"></use>
            </clipPath>
        </g>
        <polygon points="67.857,53.913 75.467,52.537 74.385,51.817 68.55,52.873" fill="#01aac1" xmlns="http://www.w3.org/2000/svg"></polygon>
        <path d="M86.92,49.55l-5.769,1.044c-0.098,0.297-0.157,0.614-0.176,0.947l6.57-1.189  C87.385,50.075,87.174,49.807,86.92,49.55z" fill="#01aac1" xmlns="http://www.w3.org/2000/svg">
        </path>
        <path d="M87.697,53.292c0.144-0.306,0.236-0.63,0.275-0.965l-7.15,1.293c-0.441,0.96-1.574,1.398-2.926,0.529  l-11.59,2.096l-0.203,0.306c-0.116,0.174-0.23,0.436-0.285,0.698L87.697,53.292z" fill="#01aac1" xmlns="http://www.w3.org/2000/svg">
        </path>
        <path d="M83.73,56.977c0.006-0.354,0.131-0.69,0.352-0.979l-14.495,2.621c0.406,0.176,0.772,0.421,1.095,0.718  L83.73,56.977z" fill="#01aac1" xmlns="http://www.w3.org/2000/svg">
        </path>
        <path d="M63.593,63.588c-0.094-0.357-0.267-0.652-0.493-0.826l-1.186,0.215c-0.124,0.112-0.237,0.231-0.312,0.344  l-0.475,0.714L63.593,63.588z" fill="#01aac1" xmlns="http://www.w3.org/2000/svg">
        </path>
        <path d="M71.795,61.188c0.076,0.289,0.112,0.589,0.123,0.894l14.078-2.546l-1.083-0.721L71.795,61.188z" fill="#01aac1" xmlns="http://www.w3.org/2000/svg"></path>
        <path d="M89.502,61.868l-1.082-0.72l-16.965,3.068c-0.094,0.191-0.2,0.381-0.323,0.566l-0.021,0.023l-0.013,0.02  c-0.103,0.154-0.216,0.294-0.33,0.431L89.502,61.868z" fill="#01aac1" xmlns="http://www.w3.org/2000/svg">
        </path>
        <path d="M65.417,66.225c-0.322-0.208-0.611-0.462-0.865-0.759l-4.974,0.899l-0.692,1.041L65.417,66.225z" fill="#01aac1" xmlns="http://www.w3.org/2000/svg"></path>
        <path d="M91.299,63.596L57.498,69.71c-0.066,0.304-0.048,0.616,0.046,0.907l33.664-6.09  C91.339,64.219,91.366,63.897,91.299,63.596z" fill="#01aac1" xmlns="http://www.w3.org/2000/svg">
        </path>
        <path d="M83.702,67.937c0.309,0.211,0.585,0.469,0.825,0.767l4.481-0.812l0.691-1.04L83.702,67.937z" fill="#01aac1" xmlns="http://www.w3.org/2000/svg"></path>
        <path d="M77.718,69.935c0.093-0.177,0.192-0.353,0.308-0.526l0.02-0.025l0.013-0.02  c0.111-0.168,0.231-0.321,0.355-0.471l-18.974,3.433l1.082,0.72L77.718,69.935z" fill="#01aac1" xmlns="http://www.w3.org/2000/svg">
        </path>
        <path d="M77.165,72.088l-14.217,2.571l0.861,0.573c0.073,0.049,0.137,0.1,0.202,0.15l13.255-2.398  C77.193,72.694,77.166,72.393,77.165,72.088z" fill="#01aac1" xmlns="http://www.w3.org/2000/svg">
        </path>
        <path d="M85.435,70.592c0.126,0.432,0.312,0.721,0.643,0.799l0.449-0.081c0.269-0.154,0.512-0.453,0.664-0.683  l0.267-0.401L85.435,70.592z" fill="#01aac1" xmlns="http://www.w3.org/2000/svg">
        </path>
        <path d="M79.615,75.526c-0.448-0.154-0.856-0.385-1.21-0.696l-13.442,2.431c-0.062,0.39-0.274,0.745-0.604,1.025  L79.615,75.526z" fill="#01aac1" xmlns="http://www.w3.org/2000/svg">
        </path>
        <path d="M69.505,79.408c0.405,0.027,0.86,0.183,1.344,0.506l0.197,0.131l11.231-2.03l0.412-0.62  c0.074-0.111,0.151-0.257,0.221-0.41L69.505,79.408z" fill="#01aac1" xmlns="http://www.w3.org/2000/svg">
        </path>
        <path d="M68.682,79.558l-7.759,1.403c-0.106,0.303-0.161,0.621-0.168,0.945l7.051-1.274  C67.952,80.143,68.259,79.758,68.682,79.558z" fill="#01aac1" xmlns="http://www.w3.org/2000/svg">
        </path>
        <path d="M67.741,82.695l-6.362,1.15c0.191,0.273,0.428,0.537,0.716,0.787l5.396-0.977  C67.615,83.358,67.7,83.036,67.741,82.695z" fill="#01aac1" xmlns="http://www.w3.org/2000/svg">
        </path>
        <polygon points="73.475,81.658 74.559,82.378 80.036,81.387 80.728,80.346" fill="#01aac1" xmlns="http://www.w3.org/2000/svg"></polygon>
        <path d="M78.166,83.777l-0.942,0.17C77.547,83.988,77.873,83.927,78.166,83.777z" fill="#01aac1" xmlns="http://www.w3.org/2000/svg"></path>
    </g>
    <g fill="#ffffff" transform="matrix(1.7318876183684577,0,0,1.7318876183684577,51.91237017895436,154.09995053618394)" id="SvgjsG1196">
        <path d="M10.48 21.36 c0.2 -0.36 0.72 -0.56 1.56 -0.56 c0.52 0 1 0.08 1.44 0.24 c0.4 0.2 0.52 0.44 0.32 0.72 c-1.88 3.16 -3.92 6 -6.16 8.88 c2.52 0.52 4.12 2.72 4.8 5.08 c0.36 1.32 0.76 2.52 1.12 3.76 c0.12 0.36 -0.04 0.6 -0.4 0.8 c-0.4 0.16 -0.84 0.24 -1.36 0.24 c-0.44 0 -1.44 -0.12 -1.56 -0.64 c-0.12 -0.44 -0.32 -1 -0.52 -1.92 c-0.44 -1.48 -1.68 -5.92 -3.72 -5.92 l-0.72 0.04 c0 2.36 0.04 4.76 0.12 7.16 c0 0.76 -1.2 0.84 -1.72 0.84 c-0.6 0 -1.64 -0.08 -1.76 -0.84 c-0.24 -7.64 -0.16 -15.6 0.2 -23.88 c0.12 -0.76 1.12 -0.84 1.72 -0.84 c0.52 0 1.76 0.08 1.76 0.84 c-0.12 2.28 -0.2 4.56 -0.24 6.8 l-0.12 6.8 c1.8 -2.32 3.52 -4.84 5.24 -7.6 z M33.12 27.8 c0.16 4.32 -0.16 8.68 -1 13.04 c-0.12 0.76 -1.16 0.8 -1.76 0.8 c-0.4 0 -0.8 -0.08 -1.2 -0.2 c-0.36 -0.16 -0.52 -0.36 -0.48 -0.6 l0.16 -0.88 l0.12 -0.88 c-1.4 1 -3.48 1.48 -5.2 1.48 c-1.2 0 -2.4 -0.24 -3.6 -0.76 c-1.16 -0.52 -2 -1.36 -2.44 -2.6 c-0.36 -1 -0.48 -2.08 -0.36 -3.24 c0.24 -2.28 1.12 -4.24 2.64 -5.92 c1.56 -1.72 3.48 -2.56 5.84 -2.56 c1.36 0 2.64 0.32 3.8 0.92 c-0.12 -2.68 -1.24 -10.08 -4.92 -10.08 c-2.36 0 -5.56 3.2 -5.76 5.56 c-0.12 0.76 -1.16 0.84 -1.76 0.84 c-0.44 0 -0.84 -0.08 -1.2 -0.24 c-0.36 -0.12 -0.56 -0.32 -0.52 -0.6 c0.32 -3.92 5.68 -7.36 9.48 -7.36 c6.68 0 8.04 8 8.16 13.28 z M21 36.56 c0.44 1.32 1.36 2.32 2.8 2.32 c3.56 0 5.48 -3.84 5.6 -6.96 c0 -1 -0.28 -2.08 -0.88 -3.16 c-0.56 -1.08 -1.44 -1.64 -2.64 -1.64 c-2.6 0 -4.12 3.4 -4.76 5.48 c-0.44 1.44 -0.48 2.76 -0.12 3.96 z M36.4 30.96 l-0.12 -8.44 c0 -0.76 1.2 -0.84 1.72 -0.84 s1.72 0.08 1.72 0.84 l0.24 16.92 c0 0.28 -0.16 0.48 -0.52 0.64 c-0.32 0.12 -0.72 0.16 -1.2 0.16 s-0.88 -0.04 -1.2 -0.16 c-0.36 -0.16 -0.52 -0.36 -0.56 -0.64 z M37.92 13.8 c1.4 0 2.52 1.08 2.52 2.48 s-1.12 2.48 -2.52 2.48 s-2.48 -1.08 -2.48 -2.48 s1.08 -2.48 2.48 -2.48 z M46.8 14.68 c-0.2 4.04 -0.32 8.2 -0.36 12.48 s-0.04 8.48 0 12.52 c-0.12 0.76 -1.2 0.84 -1.8 0.84 c-0.52 0 -1.68 -0.08 -1.68 -0.84 c-0.04 -4.2 -0.04 -8.36 0 -12.52 s0.2 -8.28 0.4 -12.48 c0 -0.68 1.2 -0.84 1.72 -0.84 c0.44 0 0.84 0.08 1.24 0.2 c0.36 0.12 0.52 0.36 0.48 0.64 z M61.48 14.36 c2.24 0.44 2.96 2.36 3.28 4.4 c0.12 1.08 0.2 2.16 0.16 3.28 s-0.08 2.08 -0.04 2.84 c0.16 5.24 0.24 10.48 0.24 15.72 c0 0.76 -1.24 0.84 -1.76 0.84 s-1.72 -0.16 -1.72 -0.84 c0 -5.76 -0.08 -11.48 -0.24 -17.2 c-0.04 -0.92 -0.08 -1.84 -0.04 -2.8 c0 -1.4 -0.24 -2.72 -0.68 -4 c-0.2 -0.44 -0.48 -0.68 -0.84 -0.72 c-0.44 0 -0.92 0.16 -1.36 0.52 c-2.84 2.08 -4.4 5.36 -5.16 8.72 c-0.36 1.8 -0.56 3.48 -0.52 5.12 c0 3.2 0.12 6.4 0.36 9.6 c0.04 0.28 -0.12 0.52 -0.48 0.64 c-0.4 0.12 -0.8 0.2 -1.2 0.2 c-0.6 0 -1.64 -0.08 -1.76 -0.84 c-0.2 -2.88 -0.32 -5.76 -0.36 -8.64 c-0.04 -0.16 -0.04 -0.48 -0.04 -1 c-0.08 -5.08 0.04 -10.2 0.36 -15.28 c0.12 -0.76 1.16 -0.84 1.76 -0.84 c0.44 0 0.84 0.08 1.24 0.2 c0.36 0.16 0.52 0.36 0.48 0.64 c-0.04 0.68 -0.08 1.2 -0.08 1.56 l-0.12 1.6 c1.72 -2.24 4.28 -3.88 7.16 -3.88 c0.56 0 1 0.04 1.36 0.16 z M80.24 34.04 c0.24 -0.36 0.76 -0.52 1.56 -0.52 c0.52 0 1 0.08 1.44 0.24 s0.52 0.4 0.32 0.68 c-0.92 1.44 -2.04 2.8 -3.4 4.04 c-1.24 1.16 -2.84 1.72 -4.84 1.72 c-2.48 0 -4.32 -0.8 -5.48 -2.44 s-1.76 -3.56 -1.8 -5.76 c-0.04 -1.32 0.04 -2.56 0.28 -3.8 c0.88 -4.52 3.48 -13.64 9.36 -13.64 c2.44 0 4.04 1.08 4.8 3.28 c0.28 0.92 0.36 1.96 0.24 3.04 c-0.76 5.32 -6.04 8.64 -11.12 8.76 c-0.12 1.16 -0.12 2.32 0 3.48 c0.12 1 0.44 2.12 0.96 3.32 s1.4 1.88 2.6 2 c1.28 0 2.32 -0.52 3.08 -1.6 c0.76 -1 1.4 -1.92 2 -2.8 z M74.72 19.8 l-0.6 1.16 c-1.12 2.28 -1.88 4.64 -2.32 7.08 c1.8 -0.2 3.36 -0.92 4.68 -2.16 c1.36 -1.24 2.28 -2.76 2.72 -4.48 c0.28 -1.04 0.32 -2 0.16 -2.84 c-0.04 -0.4 -0.24 -0.88 -0.56 -1.44 c-0.28 -0.6 -0.68 -0.88 -1.16 -0.88 c-0.56 0.04 -1.12 0.52 -1.72 1.44 c-0.56 0.88 -0.96 1.6 -1.2 2.12 z M100 33.44 c0.28 2.2 -0.32 3.84 -1.8 4.92 s-3.16 1.64 -5.04 1.64 c-1.4 0 -2.76 -0.32 -4.12 -0.96 c-1.32 -0.68 -2.2 -1.72 -2.64 -3.16 c-0.28 -0.96 -0.32 -2 -0.04 -3.16 c0.2 -0.68 1.28 -0.84 1.88 -0.84 c0.44 0 0.92 0.08 1.36 0.2 c0.36 0.16 0.52 0.36 0.48 0.64 c-0.12 0.44 -0.12 1 -0.08 1.72 c0.04 0.84 0.32 1.72 0.76 2.6 c0.48 0.88 1.24 1.32 2.24 1.32 l0.2 0 c1.12 -0.04 1.92 -0.52 2.36 -1.44 s0.72 -1.88 0.76 -2.8 c0 -1.84 -0.64 -3.32 -1.88 -4.44 s-2.56 -2.04 -4.04 -2.8 c-0.88 -0.48 -1.68 -0.96 -2.36 -1.44 c-0.76 -0.52 -1.32 -1.24 -1.64 -2.16 c-0.36 -0.96 -0.36 -1.96 -0.04 -2.96 c0.44 -1.64 1.48 -3.16 3.04 -4.48 c1.6 -1.36 3.28 -2.04 5.04 -2.04 c2.4 0 4.56 1.36 5.16 3.76 c0.24 1.2 0.36 2.24 0.4 3.08 c0 0.28 -0.2 0.52 -0.56 0.64 c-0.4 0.16 -0.84 0.24 -1.28 0.24 s-0.88 -0.08 -1.24 -0.24 c-0.4 -0.12 -0.6 -0.36 -0.6 -0.64 c-0.04 -0.28 -0.04 -0.72 -0.08 -1.24 c-0.04 -0.4 -0.12 -0.92 -0.28 -1.6 c-0.16 -0.56 -0.36 -1.04 -0.6 -1.4 c-0.28 -0.36 -0.64 -0.56 -1.04 -0.56 c-0.48 0 -0.96 0.24 -1.48 0.68 c-1.48 1.4 -2.44 2.6 -2.92 4.64 c-0.32 1.32 0.08 2.44 1.2 3.36 c0.84 0.76 1.8 1.32 2.84 1.76 c1.44 0.68 2.76 1.6 3.96 2.84 s1.88 2.68 2.08 4.32 z M113.83999999999999 34.04 c0.24 -0.36 0.76 -0.52 1.56 -0.52 c0.52 0 1 0.08 1.44 0.24 s0.52 0.4 0.32 0.68 c-0.92 1.44 -2.04 2.8 -3.4 4.04 c-1.24 1.16 -2.84 1.72 -4.84 1.72 c-2.48 0 -4.32 -0.8 -5.48 -2.44 s-1.76 -3.56 -1.8 -5.76 c-0.04 -1.32 0.04 -2.56 0.28 -3.8 c0.88 -4.52 3.48 -13.64 9.36 -13.64 c2.44 0 4.04 1.08 4.8 3.28 c0.28 0.92 0.36 1.96 0.24 3.04 c-0.76 5.32 -6.04 8.64 -11.12 8.76 c-0.12 1.16 -0.12 2.32 0 3.48 c0.12 1 0.44 2.12 0.96 3.32 s1.4 1.88 2.6 2 c1.28 0 2.32 -0.52 3.08 -1.6 c0.76 -1 1.4 -1.92 2 -2.8 z M108.32 19.8 l-0.6 1.16 c-1.12 2.28 -1.88 4.64 -2.32 7.08 c1.8 -0.2 3.36 -0.92 4.68 -2.16 c1.36 -1.24 2.28 -2.76 2.72 -4.48 c0.28 -1.04 0.32 -2 0.16 -2.84 c-0.04 -0.4 -0.24 -0.88 -0.56 -1.44 c-0.28 -0.6 -0.68 -0.88 -1.16 -0.88 c-0.56 0.04 -1.12 0.52 -1.72 1.44 c-0.56 0.88 -0.96 1.6 -1.2 2.12 z">
        </path>
    </g>
</svg>